<svg width="28" height="20" viewBox="0 0 28 20" fill="none" xmlns="http://www.w3.org/2000/svg">
<path d="M16.25 11.25C15.2083 11.25 14.3229 10.8854 13.5938 10.1562C12.8646 9.42708 12.5 8.54167 12.5 7.5C12.5 6.45833 12.8646 5.57292 13.5938 4.84375C14.3229 4.11458 15.2083 3.75 16.25 3.75C17.2917 3.75 18.1771 4.11458 18.9062 4.84375C19.6354 5.57292 20 6.45833 20 7.5C20 8.54167 19.6354 9.42708 18.9062 10.1562C18.1771 10.8854 17.2917 11.25 16.25 11.25ZM7.5 15C6.8125 15 6.22396 14.7552 5.73438 14.2656C5.24479 13.776 5 13.1875 5 12.5V2.5C5 1.8125 5.24479 1.22396 5.73438 0.734375C6.22396 0.244792 6.8125 0 7.5 0H25C25.6875 0 26.276 0.244792 26.7656 0.734375C27.2552 1.22396 27.5 1.8125 27.5 2.5V12.5C27.5 13.1875 27.2552 13.776 26.7656 14.2656C26.276 14.7552 25.6875 15 25 15H7.5ZM10 12.5H22.5C22.5 11.8125 22.7448 11.224 23.2344 10.7344C23.724 10.2448 24.3125 10 25 10V5C24.3125 5 23.724 4.75521 23.2344 4.26562C22.7448 3.77604 22.5 3.1875 22.5 2.5H10C10 3.1875 9.75521 3.77604 9.26562 4.26562C8.77604 4.75521 8.1875 5 7.5 5V10C8.1875 10 8.77604 10.2448 9.26562 10.7344C9.75521 11.224 10 11.8125 10 12.5ZM23.75 20H2.5C1.8125 20 1.22396 19.7552 0.734375 19.2656C0.244792 18.776 0 18.1875 0 17.5V3.75H2.5V17.5H23.75V20ZM7.5 12.5V2.5V12.5Z" fill="currentColor"/>
</svg>
