<svg width="20" height="25" viewBox="0 0 20 25" fill="none" xmlns="http://www.w3.org/2000/svg">
<path d="M5 22.5H15V18.75C15 17.375 14.5104 16.1979 13.5312 15.2188C12.5521 14.2396 11.375 13.75 10 13.75C8.625 13.75 7.44792 14.2396 6.46875 15.2188C5.48958 16.1979 5 17.375 5 18.75V22.5ZM10 11.25C11.375 11.25 12.5521 10.7604 13.5312 9.78125C14.5104 8.80208 15 7.625 15 6.25V2.5H5V6.25C5 7.625 5.48958 8.80208 6.46875 9.78125C7.44792 10.7604 8.625 11.25 10 11.25ZM0 25V22.5H2.5V18.75C2.5 17.4792 2.79688 16.2865 3.39062 15.1719C3.98438 14.0573 4.8125 13.1667 5.875 12.5C4.8125 11.8333 3.98438 10.9427 3.39062 9.82812C2.79688 8.71354 2.5 7.52083 2.5 6.25V2.5H0V0H20V2.5H17.5V6.25C17.5 7.52083 17.2031 8.71354 16.6094 9.82812C16.0156 10.9427 15.1875 11.8333 14.125 12.5C15.1875 13.1667 16.0156 14.0573 16.6094 15.1719C17.2031 16.2865 17.5 17.4792 17.5 18.75V22.5H20V25H0Z" fill="url(#paint0_linear_107_1244)"/>
<defs>
<linearGradient id="paint0_linear_107_1244" x1="75" y1="0" x2="75" y2="25" gradientUnits="userSpaceOnUse">
<stop stop-color="#1A5888"/>
<stop offset="1" stop-color="#349C93"/>
</linearGradient>
</defs>
</svg>
